<?xml version="1.0" encoding="UTF-8" standalone="no"?>
<svg
   xmlns:dc="http://purl.org/dc/elements/1.1/"
   xmlns:cc="http://creativecommons.org/ns#"
   xmlns:rdf="http://www.w3.org/1999/02/22-rdf-syntax-ns#"
   xmlns:svg="http://www.w3.org/2000/svg"
   xmlns="http://www.w3.org/2000/svg"
   xmlns:sodipodi="http://sodipodi.sourceforge.net/DTD/sodipodi-0.dtd"
   xmlns:inkscape="http://www.inkscape.org/namespaces/inkscape"
   version="1.1"
   id="Layer_1"
   x="0px"
   y="0px"
   width="100px"
   height="100px"
   viewBox="0 0 100 100"
   enable-background="new 0 0 100 100"
   xml:space="preserve"
   inkscape:version="0.48.3.1 r9886"
   sodipodi:docname="noun_project_2958.svg"><metadata
   id="metadata15"><rdf:RDF><cc:Work
       rdf:about=""><dc:format>image/svg+xml</dc:format><dc:type
         rdf:resource="http://purl.org/dc/dcmitype/StillImage" /><dc:title></dc:title></cc:Work></rdf:RDF></metadata><defs
   id="defs13" /><sodipodi:namedview
   pagecolor="#ffffff"
   bordercolor="#666666"
   borderopacity="1"
   objecttolerance="10"
   gridtolerance="10"
   guidetolerance="10"
   inkscape:pageopacity="0"
   inkscape:pageshadow="2"
   inkscape:window-width="1366"
   inkscape:window-height="744"
   id="namedview11"
   showgrid="false"
   inkscape:zoom="2.36"
   inkscape:cx="50"
   inkscape:cy="50"
   inkscape:window-x="0"
   inkscape:window-y="24"
   inkscape:window-maximized="1"
   inkscape:current-layer="Layer_1" />
<circle
   cx="49.999"
   cy="53.877"
   r="17.115"
   id="circle3" />

<path
   d="M49.5,77.484l-12.648-6.147l-1.841,3.403h-7.498c-6.519,0-11.804,5.285-11.804,11.804V100h21.415V83.563L49.5,77.484z"
   id="path7" />
<path
   d="M72.485,74.74h-7.498l-1.62-2.955L38.125,84.187V100h46.164V86.544C84.289,80.025,79.005,74.74,72.485,74.74z   M40.508,99.446c-0.854,0-1.545-0.691-1.545-1.544s0.691-1.544,1.545-1.544c0.853,0,1.544,0.691,1.544,1.544  S41.36,99.446,40.508,99.446z M40.508,87.633c-0.854,0-1.545-0.691-1.545-1.544s0.691-1.544,1.545-1.544  c0.853,0,1.544,0.691,1.544,1.544S41.36,87.633,40.508,87.633z M60.67,99.446c-0.854,0-1.545-0.691-1.545-1.544  s0.691-1.544,1.545-1.544c0.853,0,1.544,0.691,1.544,1.544S61.522,99.446,60.67,99.446z M60.67,87.633  c-0.854,0-1.545-0.691-1.545-1.544s0.691-1.544,1.545-1.544c0.853,0,1.544,0.691,1.544,1.544S61.522,87.633,60.67,87.633z"
   id="path9" />
</svg>